<?xml version="1.0" standalone="no"?>
<!DOCTYPE svg PUBLIC "-//W3C//DTD SVG 20010904//EN"
 "http://www.w3.org/TR/2001/REC-SVG-20010904/DTD/svg10.dtd">
<svg version="1.0" xmlns="http://www.w3.org/2000/svg"
 width="700.000000pt" height="700.000000pt" viewBox="0 0 700.000000 700.000000"
 preserveAspectRatio="xMidYMid meet">
<metadata>
Created by potrace 1.14, written by Peter Selinger 2001-2017
</metadata>
<g transform="translate(0.000000,700.000000) scale(0.100000,-0.100000)"
fill="#000000" stroke="none">
<path d="M5928 4795 c-2 -1 -34 -5 -72 -9 -38 -4 -71 -8 -75 -10 -3 -2 -22 -7
-41 -10 -75 -11 -219 -59 -309 -102 -263 -124 -462 -319 -581 -568 -96 -203
-128 -365 -124 -629 5 -350 129 -658 357 -889 202 -205 446 -322 762 -365 66
-9 314 -10 391 -1 261 30 479 135 673 326 l95 92 -60 43 c-32 24 -97 69 -144
102 -47 32 -99 69 -116 82 l-31 23 -74 -73 c-147 -146 -313 -211 -539 -209
-322 1 -583 153 -717 417 -53 103 -71 154 -99 285 -13 61 -16 283 -4 361 53
364 285 633 625 725 92 25 292 28 387 5 153 -36 267 -96 350 -183 l47 -50 43
34 c24 18 45 35 48 38 3 3 48 39 100 80 52 41 106 85 119 96 l23 22 -66 66
c-135 135 -351 239 -586 282 -79 14 -371 29 -382 19z"/>
<path d="M0 3500 l0 -1237 523 2 c445 2 538 5 627 20 326 54 531 194 629 428
32 78 42 130 46 249 8 265 -128 473 -368 562 -62 24 -143 42 -162 37 -26 -7
14 18 55 33 168 65 292 188 345 343 30 87 32 263 5 352 -65 214 -224 352 -480
417 l-105 26 -557 3 -558 2 0 -1237z m1005 855 c139 -28 204 -68 248 -150 18
-33 22 -57 22 -140 0 -84 -4 -107 -23 -142 -31 -59 -86 -111 -146 -139 -96
-44 -158 -52 -420 -53 l-246 -2 0 319 c0 175 2 321 4 323 2 2 111 3 242 2 173
-1 260 -6 319 -18z m40 -1015 c250 -38 348 -141 340 -359 -6 -151 -99 -260
-265 -312 -93 -29 -145 -33 -425 -33 l-250 -1 -3 357 c-2 328 -1 357 15 360
42 8 520 -2 588 -12z"/>
<path d="M2260 3500 l0 -1237 220 0 220 1 0 548 0 548 578 0 577 0 0 -541 c0
-297 2 -544 5 -549 3 -4 102 -7 220 -6 l215 1 0 1235 0 1235 -217 1 c-213 1
-216 1 -220 -20 -2 -11 -3 -236 -3 -498 l1 -478 -26 -1 c-33 0 -1078 0 -1107
0 l-23 1 0 498 0 498 -220 0 -220 1 0 -1237z"/>
</g>
</svg>
