<?xml version="1.0" encoding="UTF-8" standalone="no"?>
<!-- Created with Inkscape (http://www.inkscape.org/) -->

<svg
   width="50.902mm"
   height="50.902mm"
   viewBox="0 0 50.902 50.902001"
   version="1.1"
   id="svg1"
   xml:space="preserve"
   inkscape:version="1.3.2 (091e20e, 2023-11-25)"
   sodipodi:docname="favicon.svg"
   xmlns:inkscape="http://www.inkscape.org/namespaces/inkscape"
   xmlns:sodipodi="http://sodipodi.sourceforge.net/DTD/sodipodi-0.dtd"
   xmlns="http://www.w3.org/2000/svg"
   xmlns:svg="http://www.w3.org/2000/svg"><sodipodi:namedview
     id="namedview1"
     pagecolor="#ffffff"
     bordercolor="#666666"
     borderopacity="1.0"
     inkscape:showpageshadow="2"
     inkscape:pageopacity="0.0"
     inkscape:pagecheckerboard="0"
     inkscape:deskcolor="#d1d1d1"
     inkscape:document-units="mm"
     inkscape:zoom="0.88194069"
     inkscape:cx="134.92971"
     inkscape:cy="20.409536"
     inkscape:window-width="1280"
     inkscape:window-height="733"
     inkscape:window-x="0"
     inkscape:window-y="25"
     inkscape:window-maximized="0"
     inkscape:current-layer="layer1" /><defs
     id="defs1" /><g
     inkscape:label="Logo"
     inkscape:groupmode="layer"
     id="layer1"
     transform="translate(-2.5956195,-54.482208)"><path
       style="font-weight:600;font-size:25.4px;line-height:1.25;font-family:'Avenir Next';-inkscape-font-specification:'Avenir Next Semi-Bold';stroke-width:0.264583"
       d="m 2.5956195,70.941605 h 7.0103999 q 1.0159996,0 2.0065996,0.254 0.9906,0.2286 1.7526,0.7874 0.7874,0.5334 1.27,1.397 0.4826,0.8636 0.4826,2.0828 0,1.524 -0.8636,2.5146 -0.8636,0.9906 -2.2606,1.4224 v 0.0508 q 1.7018,0.2286 2.794,1.3208 1.0922,1.0922 1.0922,2.921 0,1.4732 -0.5842,2.4892 -0.5842,0.9906 -1.5494,1.6002 -0.9398,0.6096 -2.1844,0.889 -1.2192,0.254 -2.4891996,0.254 H 2.5956195 Z m 3.2003999,7.3152 h 2.8448 q 1.6001996,0 2.4383996,-0.635 0.8382,-0.635 0.8382,-1.8034 0,-1.2192 -0.8636,-1.7272 -0.8636,-0.508 -2.6923996,-0.508 h -2.5654 z m 0,7.9756 h 2.8702 q 0.6096,0 1.3208,-0.0762 0.7111996,-0.1016 1.2953996,-0.381 0.6096,-0.2794 0.9906,-0.8128 0.4064,-0.5334 0.4064,-1.4224 0,-1.4224 -0.9652,-1.9812 -0.9652,-0.5588 -2.9209996,-0.5588 h -2.9972 z m 13.2333826,-15.2908 h 3.2004 v 7.2644 h 8.4074 v -7.2644 h 3.2004 v 17.9832 h -3.2004 v -7.9756 h -8.4074 v 7.9756 h -3.2004 z m 31.750009,4.2164 q -0.7112,-0.9652 -1.8542,-1.397 -1.143,-0.4572 -2.2352,-0.4572 -1.397,0 -2.54,0.508 -1.143,0.508 -1.9812,1.397 -0.8128,0.889 -1.27,2.0828 -0.4318,1.1938 -0.4318,2.5908 0,1.4732 0.4318,2.6924 0.4318,1.2192 1.2192,2.1082 0.8128,0.8636 1.9304,1.3462 1.1176,0.4826 2.5146,0.4826 1.4478,0 2.5654,-0.5588 1.1176,-0.5842 1.8034,-1.524 l 2.5654,1.8034 q -1.1938,1.4986 -2.921,2.3368 -1.7272,0.8128 -4.0386,0.8128 -2.1082,0 -3.8862,-0.6858 -1.7526,-0.7112 -3.0226,-1.9558 -1.27,-1.27 -1.9812,-2.9972 -0.7112,-1.7526 -0.7112,-3.8608 0,-2.159 0.7366,-3.8862 0.762,-1.7526 2.0574,-2.9718 1.3208,-1.2192 3.0988,-1.8796 1.778,-0.6604 3.8608,-0.6604 0.8636,0 1.8034,0.1778 0.9398,0.1524 1.8034,0.508 0.8636,0.3302 1.6256,0.8382 0.762,0.508 1.2954,1.2192 z"
       id="text2"
       inkscape:label="CONSULTING"
       aria-label="BHC" /></g></svg>
